<svg xmlns="http://www.w3.org/2000/svg" width="600" height="372" viewBox="0 0 158.75 98.425"><path fill="#cc3c3c" fill-rule="evenodd" d="M-23.243 30.12v169.633c0 9.352 7.581 16.933 16.933 16.933H23.67a8.467 8.467 0 0 1 6.422 2.95l17.798 20.719a16.933 16.933 0 0 0 12.845 5.9h69.113c4.937 0 9.627-2.155 12.844-5.9l17.799-20.719a8.467 8.467 0 0 1 6.422-2.95h29.978c9.352 0 16.934-7.58 16.934-16.933V26.491c0-9.352-7.582-16.933-16.934-16.933l-.302.003-203.2 3.628c-9.233.165-16.63 7.697-16.63 16.931z" style="stroke-width:.264583" transform="matrix(.29129 0 0 .29129 51.618 14.466)"/><path fill="#ff4c4c" fill-rule="evenodd" d="M-23.243 9.253v177.8c0 9.352 7.581 16.933 16.933 16.933h33.913a8.467 8.467 0 0 1 6.729 3.328l13.542 17.732a16.933 16.933 0 0 0 13.458 6.656h67.917a16.933 16.933 0 0 0 13.458-6.656l13.542-17.732a8.467 8.467 0 0 1 6.729-3.328h33.912c9.352 0 16.934-7.58 16.934-16.933V9.253c0-9.352-7.582-16.933-16.934-16.933H-6.31c-9.352 0-16.933 7.581-16.933 16.933z" style="stroke-width:.264583" transform="matrix(.29129 0 0 .29129 51.618 14.466)"/><path fill="#fff" fill-opacity=".2" d="M-14.776 9.253v177.8a8.467 8.467 0 0 0 8.466 8.467h33.913a16.933 16.933 0 0 1 13.458 6.655l13.542 17.732a8.467 8.467 0 0 0 6.729 3.328h67.917a8.467 8.467 0 0 0 6.729-3.328l13.542-17.732a16.933 16.933 0 0 1 13.458-6.655h33.912a8.467 8.467 0 0 0 8.467-8.467V9.253A8.467 8.467 0 0 0 196.89.786H-6.31a8.467 8.467 0 0 0-8.466 8.467zm-8.467 0c0-9.352 7.581-16.933 16.933-16.933h203.2c9.352 0 16.934 7.581 16.934 16.933v177.8c0 9.352-7.582 16.933-16.934 16.933h-33.912a8.467 8.467 0 0 0-6.73 3.328l-13.541 17.732a16.933 16.933 0 0 1-13.458 6.656H61.332a16.933 16.933 0 0 1-13.458-6.656l-13.542-17.732a8.467 8.467 0 0 0-6.729-3.328H-6.31c-9.352 0-16.933-7.58-16.933-16.933z" style="stroke-width:.264583" transform="matrix(.29129 0 0 .29129 51.618 14.466)"/><path fill="none" stroke="#fff" stroke-width="18.23477334" d="M92.599 33.165a29.144 29.144 0 0 0-.578 3.658c-.032.353 0 .802.096 1.347.097.642.145 1.091.145 1.348 0 .834-.546 1.25-1.636 1.25-.706 0-1.171-.208-1.396-.625-.032-.706-.016-1.668.048-2.887.064-1.444.096-2.406.096-2.887-.032 0-.08-.033-.144-.097-2.984.129-5.79.321-8.422.578-.064.417-.064.93 0 1.54l.193 1.732c-.128.995-.193 2.47-.193 4.427.097.835.145 4.412.145 10.732v3.513c0 .545.08.93.24 1.155h2.984c1.22-.16 1.829.353 1.829 1.54 0 .705-.337 1.203-1.01 1.491-.418.16-1.156.193-2.215.097a16.818 16.818 0 0 0-2.261-.048c-1.187.16-2.631.288-4.331.385-1.733.096-2.791-.145-3.176-.722-.257-.385-.257-.786 0-1.203.449-.706 1.62-1.06 3.513-1.06.994 0 1.491-.272 1.491-.817 0-.289-.016-.562-.048-.818 0-.802.016-1.508.048-2.118.097-1.732.097-4.17 0-7.314-.128-4.556-.08-8.646.145-12.272l-.145-.144c-.994.064-2.855.048-5.582-.048-.128 0-1.107.064-2.935.192.449 3.08.705 5.278.77 6.593l-.097 1.3c-.032.48-.433.721-1.203.721-.61 0-1.123-1.155-1.54-3.464a1358.2 1358.2 0 0 1-.577-4.187c0-.225-.112-.61-.337-1.155-.192-.578-.617-1.536-.617-1.825 0-1.015.938-.774 2.157-.966.096 0 .257.016.481.048.225.032.385.048.481.048h11.935a90.392 90.392 0 0 0 8.566-.77c.192-.096.48-.192.866-.289.674-.064 1.251.097 1.732.482.482.352.642.866.482 1.54z"/><path fill="none" stroke="#ff4c4c" stroke-width="9.11721537" d="M92.566 33.17q-.385 1.685-.577 3.658-.048.53.096 1.348.144.962.144 1.347 0 1.251-1.636 1.251-1.059 0-1.395-.625-.049-1.059.048-2.888.096-2.165.096-2.887-.048 0-.144-.096-4.476.192-8.422.577-.096.626 0 1.54l.193 1.733q-.193 1.491-.193 4.427.145 1.251.145 10.731V56.8q0 .818.24 1.155h2.984q1.828-.24 1.828 1.54 0 1.059-1.01 1.492-.626.24-2.214.096-.962-.096-2.262-.048-1.78.24-4.33.385-2.6.144-3.177-.722-.385-.577 0-1.203.674-1.059 3.513-1.059 1.492 0 1.492-.818 0-.433-.048-.818 0-1.203.048-2.117.144-2.599 0-7.315-.192-6.833.144-12.271l-.144-.145q-1.492.097-5.582-.048-.193 0-2.936.193.674 4.62.77 6.593l-.096 1.299q-.048.722-1.203.722-.914 0-1.54-3.465-.289-2.07-.577-4.187 0-.337-.337-1.155-.29-.866-.29-1.299 0-1.203 1.83-1.492.144 0 .48.048.338.048.482.048H80.921q4.427-.192 8.565-.77.29-.144.867-.288 1.01-.096 1.732.481.722.53.481 1.54z"/><path fill="#fff" d="M92.53 33.177q-.384 1.684-.577 3.657-.048.53.096 1.347.145.963.145 1.348 0 1.25-1.636 1.25-1.06 0-1.396-.625-.048-1.058.048-2.887.096-2.166.096-2.887-.048 0-.144-.097-4.475.193-8.422.578-.096.625 0 1.54l.193 1.732q-.193 1.492-.193 4.427.145 1.252.145 10.732v3.513q0 .818.24 1.155h2.984q1.829-.24 1.829 1.54 0 1.058-1.01 1.491-.626.241-2.214.097-.963-.097-2.262-.048-1.78.24-4.331.385-2.599.144-3.176-.722-.385-.578 0-1.203.673-1.059 3.513-1.059 1.491 0 1.491-.818 0-.433-.048-.818 0-1.203.048-2.118.145-2.598 0-7.314-.192-6.834.145-12.272l-.145-.144q-1.491.096-5.582-.048-.192 0-2.935.192.673 4.62.77 6.593l-.097 1.3q-.048.721-1.203.721-.914 0-1.54-3.464-.288-2.07-.577-4.187 0-.337-.337-1.155-.289-.866-.289-1.3 0-1.202 1.829-1.491.144 0 .481.048.337.048.481.048H80.885q4.427-.192 8.566-.77.288-.144.866-.289 1.01-.096 1.732.482.722.529.482 1.54z"/></svg>