<svg xmlns="http://www.w3.org/2000/svg" width="600" height="372" viewBox="0 0 158.751 98.424"><g stroke-miterlimit="10" data-paper-data="{&quot;isPaintingLayer&quot;:true}" style="mix-blend-mode:normal"><path fill="#d99e82" d="M145.703 74.297c-1.346 0-2.695-.18-3.725-.538L10.42 27.662c-2.056-.721-2.056-1.894 0-2.612 2.06-.72 5.4-.72 7.456 0L149.43 71.148c2.06.717 2.06 1.89 0 2.611-1.03.359-2.378.542-3.727.542z"/><path fill="#fcb1e3" d="M65.754 34.28c0 5.611-12.977 10.16-28.988 10.16-16.013 0-28.99-4.552-28.99-10.16 0-5.608 12.98-10.157 28.99-10.157 16.01 0 28.988 4.549 28.988 10.157z"/><path fill="#ffd983" d="M61.737 55.25c-15.582-1.289-25.23-6.76-21.552-12.22 3.681-5.461 19.293-8.84 34.875-7.551 15.582 1.29 25.233 6.76 21.552 12.22-3.678 5.461-19.293 8.84-34.875 7.551z"/><path fill="#a6d388" d="M129.011 56.443c0 5.611-12.983 10.16-28.994 10.16-16.01 0-28.99-4.552-28.99-10.16 0-5.608 12.98-10.156 28.99-10.156 16.01 0 28.994 4.548 28.994 10.156z"/><path fill="#d99e82" d="M145.703 74.297c-1.346 0-2.695-.18-3.725-.538l-32.286-11.313c-2.06-.72-2.06-1.893 0-2.61 2.06-.722 5.392-.722 7.452 0l32.286 11.312c2.06.72 2.06 1.893 0 2.611-1.03.359-2.378.542-3.727.542z"/></g></svg>