<svg width="14" height="10" viewBox="0 0 14 10" fill="none" xmlns="http://www.w3.org/2000/svg">
<path fill-rule="evenodd" clip-rule="evenodd" d="M12 8.51C12 8.786 11.776 9.01 11.5 9.01H6.197C6.064 9.01 5.937 9.062 5.844 9.156L5.146 9.854C5.053 9.947 4.926 10 4.793 10H3.207C3.074 10 2.947 9.947 2.854 9.854L2.156 9.156C2.062 9.062 1.936 9.01 1.803 9.01H0.5C0.224 9.01 0 8.786 0 8.51V5.5C0 5.224 0.224 5 0.5 5H1.793C1.926 5 2.053 5.053 2.146 5.146L2.854 5.854C2.947 5.947 3.074 6 3.207 6H4.793C4.926 6 5.053 5.947 5.146 5.854L5.854 5.146C5.947 5.053 6.074 5 6.207 5H11.5C11.776 5 12 5.224 12 5.5V8.51ZM14 3.51C14 3.786 13.776 4.01 13.5 4.01H6.197C6.064 4.01 5.937 4.062 5.844 4.156L5.146 4.854C5.053 4.947 4.926 5 4.793 5H3.207C3.074 5 2.947 4.947 2.854 4.854L2.156 4.156C2.062 4.062 1.936 4.01 1.803 4.01H0.5C0.224 4.01 0 3.786 0 3.51V0.5C0 0.224 0.224 0 0.5 0H1.793C1.926 0 2.053 0.0529999 2.146 0.146L2.854 0.854C2.947 0.947 3.074 1 3.207 1H4.793C4.926 1 5.053 0.947 5.146 0.854L5.854 0.146C5.947 0.0529999 6.074 0 6.207 0H13.5C13.776 0 14 0.224 14 0.5V3.51Z" fill="#00C3FF"/>
</svg>
