<svg width="14" height="14" viewBox="0 0 14 14" fill="none" xmlns="http://www.w3.org/2000/svg">
<path fill-rule="evenodd" clip-rule="evenodd" d="M13.1998 3.58685C12.5417 4.94214 11.5663 6.50539 10.6458 7.66387C9.87501 8.63951 9.25676 9.21177 8.66599 9.49093C8.59729 9.53419 8.52997 9.54815 8.44616 9.54815C8.39121 9.54815 8.33625 9.53419 8.26756 9.50488C8.14391 9.46441 8.034 9.3667 7.97904 9.24108C7.81418 8.86283 7.58061 8.5432 7.26599 8.29057C6.94862 8.05329 6.59141 7.87184 6.18062 7.77414C6.0556 7.74622 5.93195 7.66387 5.86325 7.53686C5.79456 7.4252 5.76845 7.28562 5.79456 7.14744C5.95942 6.50539 6.38533 5.75168 7.12723 4.81652C8.58493 2.9448 11.4976 0.168632 12.9113 0.0137022C13.296 -0.0421283 13.5158 0.0834904 13.6532 0.195151C14.0118 0.502219 14.369 1.17358 13.1998 3.58685ZM7.26544 10.999C7.34788 11.6969 7.16927 12.3809 6.74199 12.9252C6.37242 13.4123 5.85034 13.7487 5.25956 13.8883C5.23209 13.9022 5.19087 13.9162 5.16339 13.9162L5.02463 13.9301C4.76496 13.972 4.51766 13.9999 4.26899 13.9999C2.29196 13.9999 0.902961 12.6586 0.354779 11.7807C0.147321 11.4317 -0.167299 10.7897 0.107479 10.3849C0.176173 10.2872 0.367144 10.0778 0.779311 10.1616C2.08451 10.4407 2.55163 9.85452 2.63544 9.74286C3.51472 8.58438 5.14965 8.37501 6.27487 9.24039C6.8258 9.67307 7.18164 10.3012 7.26544 10.999Z" fill="#00C3FF"/>
</svg>
