<svg width="20px" height="20px" viewBox="0 0 20 20" fill="none" xmlns="http://www.w3.org/2000/svg">
<path fill-rule="evenodd" clip-rule="evenodd" d="M9.63078 8.63714C9.48028 8.63714 9.32557 8.59755 9.18492 8.51412C8.76719 8.26524 8.62794 7.72365 8.87549 7.30366C9.34667 6.50046 9.34667 5.50495 8.87549 4.70317C8.62794 4.28177 8.76719 3.74018 9.18492 3.4913C9.60687 3.24525 10.1442 3.38383 10.3889 3.8024C11.1864 5.15991 11.1864 6.8455 10.3889 8.20302C10.2257 8.48301 9.93177 8.63714 9.63078 8.63714ZM12.2566 10.0553C12.1061 10.0553 11.95 10.0157 11.8108 9.9323C11.393 9.68342 11.2538 9.14183 11.5013 8.72185C12.4873 7.04474 12.4873 4.96039 11.5013 3.2847C11.2538 2.86472 11.393 2.32171 11.8108 2.07283C12.2299 1.8282 12.7672 1.96536 13.0147 2.38393C14.3284 4.61535 14.3284 7.38978 13.0147 9.6212C12.8502 9.90119 12.5576 10.0553 12.2566 10.0553ZM7.37853 1.67859V10.32C7.37853 11.3438 6.17175 11.8798 5.41927 11.1897L3.79475 9.69784C3.21949 9.17039 2.46982 8.87768 1.69062 8.87768H1.40651C0.630114 8.87768 0 8.24558 0 7.4636V4.55059C0 3.77001 0.630114 3.13651 1.40651 3.13651H1.67515C2.45435 3.13651 3.20402 2.84379 3.77928 2.31634L5.41927 0.810342C6.17175 0.12027 7.37853 0.656207 7.37853 1.67859Z" fill="#00C3FF"/>
</svg>
