<svg xmlns="http://www.w3.org/2000/svg" width="600" height="372"><path fill="#0fbd8c" d="M0 0h600v372H0z" style="fill:#ff4c4c;fill-opacity:1"/><path fill="none" stroke="#fff" stroke-width="100.960236954" d="M374.122732 113.315386c-1.420992 6.216896-2.48675 12.966671-3.197255 20.249322-.177545 1.95388 0 4.44064.53287 7.460276.53287 3.552512.799314 6.039272.799314 7.460277 0 4.618265-3.019637 6.9274-9.058893 6.9274-3.907777 0-6.483344-1.154567-7.726724-3.4637-.177635-3.907765-.088809-9.236534.266444-15.986307.355247-7.993154.53287-13.321923.53287-15.986307-.177618 0-.444056-.177617-.799314-.532877-16.519182.710503-32.061422 1.776257-46.62672 3.197261-.355257 2.309134-.355257 5.151143 0 8.52603l1.06574 9.591785c-.710492 5.506395-1.06574 13.677174-1.06574 24.512338.532876 4.618266.799314 24.423527.799314 59.41578v19.450027c0 3.019637.444061 5.151152 1.332184 6.394527h16.519194c6.749766-.88814 10.12465 1.95388 10.12465 8.526023 0 3.907777-1.865065 6.66097-5.595195 8.259597-2.309144.88814-6.394538 1.065757-12.256182.532888-3.552513-.355253-7.726715-.44408-12.52261-.266444-6.572148.888122-14.565302 1.598627-23.97946 2.131497-9.591775.532887-15.453417-.799296-17.58493-3.996568-1.421004-2.131497-1.421004-4.35182 0-6.66097 2.486759-3.90776 8.970093-5.861639 19.450001-5.861639 5.5064 0 8.259598-1.509818 8.259598-4.529455 0-1.598627-.088809-3.108446-.266444-4.529456 0-4.440664.088809-8.348441.266444-11.723318.532875-9.591786.532875-23.091334 0-40.498644-.710505-25.22284-.444067-47.87011.799313-67.941806l-.799313-.799315c-5.506399.35525-15.808684.266439-30.90686-.266438-.710503 0-6.128084.35525-16.252745 1.065753 2.486758 17.052061 3.907764 29.219417 4.263015 36.502068l-.532877 7.19384c-.177617 2.664384-2.397946 3.996576-6.660963 3.996576-3.374888 0-6.216897-6.394523-8.52603-19.18357-1.065754-7.637902-2.131508-15.364617-3.197262-23.180145 0-1.24338-.621689-3.374887-1.865069-6.394522-1.065754-3.197262-3.4161-8.50316-3.4161-10.101792 0-5.621996 5.192357-4.285884 11.94213-5.351638.532877 0 1.421005.088808 2.664385.266438 1.24338.177618 2.131508.266439 2.664384.266439h66.076742c16.341554-.710503 32.150231-2.131508 47.426033-4.263015 1.065763-.532877 2.664399-1.065754 4.795896-1.598631 3.730141-.355253 6.927396.532875 9.59178 2.664384 2.664385 1.953882 3.552525 4.795892 2.664385 8.52603z"/><path fill="none" stroke="#ff4c4c" stroke-width="50.48005925" d="M373.943716 113.345592q-2.131495 9.325347-3.197251 20.249322-.266443 2.930823.53287 7.460276.799313 5.32877.799313 7.460276 0 6.9274-9.0589 6.9274-5.86165 0-7.726717-3.4637-.266443-5.861646.266443-15.986305.53287-11.989732.53287-15.986307-.266426 0-.799313-.532878-24.778771 1.065754-46.626716 3.197263-.532887 3.463699 0 8.526028l1.06574 9.591785q-1.06574 8.25959-1.06574 24.512339.799313 6.927398.799313 59.415776v19.450004q0 4.52945 1.332183 6.394519h16.519194q10.124651-1.3322 10.124651 8.52603 0 5.86165-5.595196 8.259604-3.463715 1.332199-12.256182.532886-5.328768-.532886-12.522608-.266443-9.858224 1.332182-23.979459 2.131495-14.387663.79933-17.58493-3.996564-2.131507-3.197267 0-6.660978 3.730137-5.861632 19.45-5.861632 8.259598 0 8.259598-4.529467 0-2.397938-.266445-4.52945 0-6.66097.266445-11.723295.799312-14.387679 0-40.498642-1.065758-37.83426.799312-67.941805l-.799312-.799314q-8.259598.532876-30.90686-.266438-1.065754 0-16.252744 1.065752 3.730137 25.578092 4.263015 36.502067l-.532878 7.19384q-.266438 3.996577-6.660962 3.996577-5.06233 0-8.52603-19.18357-1.59863-11.456853-3.197261-23.180144 0-1.865069-1.86507-6.394522-1.59863-4.795893-1.59863-7.193838 0-6.660962 10.12466-8.259593.799316 0 2.664385.266439 1.865068.26644 2.664385.26644h66.07674q24.512328-1.065755 47.426026-4.263016 1.598642-.799316 4.795893-1.59863 5.595223-.53288 9.591787 2.664383 3.99658 2.930823 2.664381 8.52603z"/><path fill="#fff" d="M373.746336 113.376487q-2.131497 9.325346-3.197254 20.249322-.266444 2.930823.53287 7.460277.799313 5.328769.799313 7.460276 0 6.9274-9.058893 6.9274-5.861653 0-7.726723-3.4637-.266444-5.861646.266443-15.986307.53287-11.98973.53287-15.986306-.266426 0-.799313-.532877-24.778774 1.065754-46.62672 3.197261-.532887 3.4637 0 8.52603l1.06574 9.591784q-1.06574 8.259592-1.06574 24.51234.799314 6.927399.799314 59.415778v19.450005q0 4.529455 1.332183 6.394526h16.519195q10.12465-1.3322 10.12465 8.526023 0 5.861657-5.595195 8.259598-3.463716 1.3322-12.256183.532887-5.328769-.532887-12.522609-.266444-9.858224 1.332184-23.97946 2.131497-14.387662.799332-17.58493-3.996567-2.131508-3.197255 0-6.66097 3.730138-5.86164 19.450001-5.86164 8.259597 0 8.259597-4.529455 0-2.39794-.266443-4.529455 0-6.66097.266443-11.723295.799314-14.38768 0-40.498644-1.065757-37.834261.799314-67.941806l-.799314-.799315q-8.259597.532877-30.90686-.266438-1.065753 0-16.252745 1.065753 3.730139 25.578091 4.263015 36.502067l-.532876 7.19384q-.266439 3.996577-6.660963 3.996577-5.06233 0-8.52603-19.18357-1.598631-11.456853-3.197262-23.180145 0-1.865069-1.86507-6.394522-1.59863-4.795892-1.59863-7.193838 0-6.660962 10.124661-8.259592.799315 0 2.664385.266438 1.865069.266439 2.664384.266439h66.076742q24.51233-1.065754 47.426033-4.263016 1.598645-.799315 4.795895-1.59863 5.595213-.532879 9.59178 2.664384 3.996586 2.930823 2.664385 8.52603z"/></svg>