<?xml version="1.0" encoding="UTF-8" standalone="no"?>
<svg
   xmlns:dc="http://purl.org/dc/elements/1.1/"
   xmlns:cc="http://creativecommons.org/ns#"
   xmlns:rdf="http://www.w3.org/1999/02/22-rdf-syntax-ns#"
   xmlns:svg="http://www.w3.org/2000/svg"
   xmlns="http://www.w3.org/2000/svg"
   xmlns:sodipodi="http://sodipodi.sourceforge.net/DTD/sodipodi-0.dtd"
   xmlns:inkscape="http://www.inkscape.org/namespaces/inkscape"
   width="207.70732"
   height="307.1875"
   viewBox="0 0 166.16586 245.75"
   version="1.1"
   id="svg2"
   inkscape:version="0.48.4 r9939"
   sodipodi:docname="AnimalSilhouettes2-Rhinocerous2.svg">
  <metadata
     id="metadata11474">
    <rdf:RDF>
      <cc:Work
         rdf:about="">
        <dc:format>image/svg+xml</dc:format>
        <dc:type
           rdf:resource="http://purl.org/dc/dcmitype/StillImage" />
        <dc:title></dc:title>
      </cc:Work>
    </rdf:RDF>
  </metadata>
  <defs
     id="defs11472" />
  <sodipodi:namedview
     pagecolor="#ffffff"
     bordercolor="#666666"
     borderopacity="1"
     objecttolerance="10"
     gridtolerance="10"
     guidetolerance="10"
     inkscape:pageopacity="0"
     inkscape:pageshadow="2"
     inkscape:window-width="1855"
     inkscape:window-height="1056"
     id="namedview11470"
     showgrid="false"
     units="in"
     fit-margin-top="0.25"
     fit-margin-left="0.25"
     fit-margin-right="0.25"
     fit-margin-bottom="0.25"
     inkscape:zoom="0.56869759"
     inkscape:cx="243.74134"
     inkscape:cy="-147.37532"
     inkscape:window-x="65"
     inkscape:window-y="24"
     inkscape:window-maximized="1"
     inkscape:current-layer="svg2" />
  <path
     d="m 75.0375,18.68375 c 0.45,-0.12 1.35,-0.35 1.8,-0.46 1.96,-0.08 3.93,-0.12 5.9,-0.17 l 0.91,0.11 0.88,0.18 c 0.59,0.17 1.77,0.51 2.36,0.69 l 0.83,0.24 c 0.56,0.19 1.67,0.58 2.23,0.77 l 0.81,0.25 c 0.96,0.76 2.04,1.01 3.24,0.75 1.6,0.12 4.81,0.37 6.41,0.49 1.52,0.01 4.56,0.02 6.08,0.02 2.57,-0.35 5.16,-0.53 7.75,-0.55 1.14,0.06 2.28,0.05 3.43,-0.02 0.32,-0.14 0.96,-0.41 1.28,-0.55 0.39,0.03 1.17,0.09 1.57,0.12 l 0.73,0.34 c -0.05,0.62 -0.13,1.85 -0.17,2.47 -0.26,0.15 -0.76,0.44 -1.02,0.59 l -0.51,0.33 c -0.23,0.21 -0.68,0.63 -0.91,0.84 -0.27,0.19 -0.83,0.57 -1.1,0.76 l -0.62,0.38 c -0.3,0.19 -0.9,0.57 -1.21,0.76 l -0.66,0.28 c -0.28,0.21 -0.83,0.63 -1.1,0.84 -0.31,0.21 -0.92,0.63 -1.22,0.84 l -0.64,0.45 c -0.3,0.23 -0.89,0.69 -1.19,0.91 -0.28,0.25 -0.82,0.73 -1.1,0.97 l -0.69,0.24 -0.68,0.19 -0.16,0.65 -0.21,0.66 c -0.23,0.25 -0.69,0.76 -0.91,1.02 -0.23,0.23 -0.68,0.71 -0.91,0.95 l -0.35,0.58 c -0.21,0.26 -0.63,0.77 -0.84,1.03 -0.21,0.25 -0.62,0.75 -0.83,1 -0.21,0.26 -0.62,0.78 -0.83,1.03 -0.2,0.29 -0.6,0.88 -0.8,1.17 l -0.42,0.69 c -0.23,0.58 -0.7,1.74 -0.94,2.32 0.05,3.48 0.07,7.02 -0.07,10.53 0.2,0.6 0.6,1.81 0.8,2.41 l 0.29,0.78 0.15,0.77 c 0.17,0.29 0.52,0.89 0.7,1.18 l 0.32,0.66 c 0.16,0.3 0.48,0.91 0.65,1.22 l 0.26,0.63 c 0.2,0.27 0.58,0.79 0.77,1.05 0.2,0.28 0.59,0.84 0.78,1.12 0.21,0.28 0.64,0.85 0.85,1.14 l 0.45,0.6 c 0.22,0.29 0.67,0.85 0.89,1.14 0.23,0.26 0.69,0.8 0.92,1.06 0.24,0.26 0.7,0.77 0.94,1.03 0.24,0.25 0.71,0.75 0.95,1 0.23,0.25 0.71,0.75 0.95,1 0.24,0.25 0.71,0.75 0.95,1 0.24,0.26 0.71,0.77 0.95,1.03 0.23,0.26 0.7,0.79 0.94,1.06 0.24,0.28 0.71,0.84 0.94,1.12 l 0.49,0.6 c 0.23,0.29 0.69,0.86 0.92,1.14 0.22,0.27 0.68,0.82 0.9,1.09 0.23,0.27 0.67,0.81 0.89,1.08 0.22,0.27 0.66,0.82 0.87,1.09 l 0.34,0.61 c 0.21,0.25 0.65,0.75 0.87,1.01 0.2,0.27 0.61,0.83 0.82,1.1 0.21,0.29 0.62,0.87 0.83,1.16 l 0.43,0.63 c 0.21,0.3 0.62,0.9 0.82,1.2 0.21,0.3 0.62,0.9 0.83,1.2 l 0.42,0.63 c 0.2,0.31 0.6,0.91 0.8,1.21 0.21,0.3 0.61,0.9 0.81,1.2 l 0.41,0.62 c 0.2,0.3 0.6,0.9 0.8,1.2 0.2,0.3 0.6,0.89 0.8,1.19 l 0.41,0.62 c 0.2,0.3 0.59,0.9 0.79,1.2 0.2,0.29 0.61,0.89 0.81,1.19 l 0.41,0.62 c 0.19,0.3 0.59,0.9 0.79,1.2 0.2,0.3 0.61,0.9 0.81,1.2 l 0.41,0.64 c 0.19,0.3 0.59,0.91 0.79,1.21 0.19,0.3 0.59,0.91 0.78,1.21 l 0.4,0.64 c 0.18,0.3 0.56,0.91 0.74,1.21 l 0.26,0.66 c 0.19,0.27 0.58,0.81 0.77,1.08 0.17,0.3 0.52,0.9 0.7,1.2 l 0.35,0.65 c 0.17,0.32 0.52,0.95 0.69,1.27 l 0.35,0.67 c 0.16,0.32 0.5,0.96 0.66,1.29 l 0.34,0.67 c 0.15,0.32 0.47,0.97 0.63,1.3 l 0.32,0.68 c 0.16,0.34 0.47,1.01 0.62,1.35 l 0.32,0.74 c 0.24,0.54 0.72,1.63 0.96,2.17 0.22,0.56 0.67,1.69 0.89,2.25 l 0.28,0.83 c 0.2,0.58 0.59,1.73 0.78,2.31 l 0.22,0.83 c 0.01,0.42 0.02,1.25 0.03,1.67 0.18,0.32 0.53,0.96 0.71,1.28 0.07,0.42 0.21,1.26 0.27,1.68 -0.22,1.2 -0.01,2.33 0.63,3.38 0.09,0.67 0.27,2.01 0.36,2.68 l 0.01,0.87 c -0.11,1.79 0.13,3.58 0.56,5.32 0.36,4.92 1.09,10.02 0.13,14.93 -0.16,0.61 -0.47,1.83 -0.62,2.44 0.09,1.92 -0.04,3.87 -0.45,5.76 -0.72,0.93 -0.99,1.99 -0.79,3.17 l 0,0.75 -0.23,0.67 c -0.17,0.26 -0.5,0.78 -0.66,1.04 l -0.19,0.6 c -0.21,0.24 -0.62,0.73 -0.83,0.97 -0.47,0.22 -1.41,0.65 -1.87,0.87 l -0.78,-0.02 c -0.48,-0.2 -1.45,-0.6 -1.94,-0.8 -0.01,-0.62 -0.04,-1.87 -0.05,-2.5 l 0,-0.81 c 0.17,-0.31 0.51,-0.95 0.68,-1.26 0,-0.42 0.02,-1.24 0.02,-1.65 l 0.22,-0.83 c 0.19,-0.58 0.55,-1.74 0.74,-2.33 l 0.24,-0.84 c 0.68,-1.05 0.88,-2.18 0.6,-3.39 0,-0.45 -0.01,-1.33 -0.01,-1.78 l 0.1,-0.85 c 0.31,-1.2 0.09,-2.29 -0.66,-3.26 l -0.18,-0.86 c 0.13,-1.23 -0.17,-2.34 -0.9,-3.33 l -0.26,-0.85 c -0.19,-0.58 -0.59,-1.75 -0.79,-2.33 l -0.25,-0.79 -0.18,-0.77 c -0.21,-0.23 -0.63,-0.71 -0.85,-0.95 -0.18,-0.58 -0.56,-1.74 -0.75,-2.32 l -0.39,-0.73 c -0.18,-0.32 -0.54,-0.97 -0.72,-1.29 l -0.25,-0.65 c -0.18,-0.26 -0.54,-0.79 -0.72,-1.05 -0.17,-0.27 -0.52,-0.81 -0.69,-1.08 l -0.36,-0.56 c -0.17,-0.26 -0.52,-0.8 -0.69,-1.06 l -0.33,-0.54 c -0.23,-0.2 -0.69,-0.6 -0.92,-0.8 -0.4,-1.24 -1.04,-1.4 -1.95,-0.48 -0.27,0.16 -0.8,0.48 -1.07,0.64 -0.17,0.26 -0.52,0.77 -0.69,1.03 -0.96,1.99 -1.22,4.03 -0.79,6.1 0.25,1.48 0.42,2.97 0.52,4.47 l 0.04,0.87 c 0.12,1.57 0.36,4.69 0.48,6.25 0.33,8.01 1.33,16.21 0.08,24.19 -0.61,1.34 -0.81,2.81 -0.63,4.28 -0.08,0.65 -0.24,1.96 -0.32,2.61 -0.15,0.58 -0.45,1.76 -0.59,2.34 -0.12,0.42 -0.35,1.27 -0.47,1.69 -0.2,0.57 -0.61,1.71 -0.82,2.28 -0.25,0.54 -0.74,1.62 -0.98,2.16 l -0.34,0.73 c -0.17,0.33 -0.5,0.99 -0.67,1.32 l -0.34,0.65 c -0.17,0.3 -0.51,0.89 -0.68,1.19 -0.19,0.26 -0.57,0.79 -0.76,1.05 l -0.27,0.63 c -0.19,0.29 -0.58,0.87 -0.78,1.16 l -0.41,0.6 c -0.21,0.27 -0.63,0.82 -0.84,1.09 -0.22,0.26 -0.64,0.77 -0.85,1.02 -0.21,0.24 -0.64,0.73 -0.85,0.97 -0.21,0.23 -0.63,0.71 -0.84,0.95 -0.21,0.24 -0.62,0.74 -0.82,0.98 -0.17,0.29 -0.5,0.88 -0.66,1.17 l -0.27,0.69 c -0.04,1.34 -0.12,4.01 -0.16,5.34 l 0.05,0.71 0.01,0.69 0.82,-0.03 0.87,-0.01 c 1.69,0.27 5.07,0.8 6.76,1.07 1.04,0.69 2.19,0.97 3.45,0.83 l 0.82,0.25 c 0.53,0.23 1.59,0.67 2.12,0.9 l 0.63,0.35 c 0.25,0.19 0.76,0.56 1.02,0.74 0.2,0.2 0.62,0.6 0.82,0.8 0.18,0.23 0.54,0.7 0.72,0.93 -0.03,0.93 0.22,1.78 0.76,2.56 l -0.18,0.65 c -0.22,0.23 -0.66,0.71 -0.89,0.95 -0.34,0.07 -1.02,0.22 -1.36,0.29 -0.33,-0.03 -0.98,-0.09 -1.3,-0.12 l -0.72,0.19 c -0.58,0.13 -1.73,0.37 -2.31,0.5 -0.32,0.13 -0.97,0.38 -1.29,0.51 -0.26,0.19 -0.78,0.58 -1.04,0.78 -0.23,0.21 -0.68,0.63 -0.9,0.84 -0.21,0.21 -0.62,0.64 -0.82,0.85 l -0.35,0.49 c -0.23,0.2 -0.67,0.58 -0.89,0.77 l -0.41,0.44 c -0.27,0.13 -0.81,0.38 -1.08,0.5 l -0.6,0.12 c -0.29,-0.04 -0.87,-0.11 -1.16,-0.15 l -0.61,-0.02 c -0.28,-0.11 -0.84,-0.34 -1.13,-0.45 -0.29,-0.13 -0.86,-0.41 -1.15,-0.54 -0.3,-0.17 -0.9,-0.5 -1.2,-0.67 -0.4,-0.05 -1.2,-0.16 -1.6,-0.21 l -0.82,-0.09 c -0.88,-1.12 -1.65,-1.06 -2.3,0.2 l -0.69,0.24 c -0.3,0.13 -0.91,0.39 -1.21,0.52 -0.27,0.16 -0.8,0.46 -1.07,0.62 -0.26,0.16 -0.79,0.47 -1.05,0.63 -0.3,0.14 -0.9,0.44 -1.2,0.58 -0.38,0.08 -1.13,0.23 -1.51,0.3 l -0.79,0.2 c -0.15,-0.23 -0.46,-0.68 -0.62,-0.91 l -0.57,-0.34 -0.34,-0.62 c 0.4,-0.98 0.47,-1.98 0.21,-2.99 0.11,-0.37 0.32,-1.11 0.43,-1.48 0.12,-0.32 0.38,-0.97 0.5,-1.3 l 0.27,-0.63 c 0.13,-0.31 0.41,-0.91 0.54,-1.21 0.09,-0.34 0.27,-1 0.36,-1.33 0.1,-0.6 0.3,-1.8 0.4,-2.4 -0.07,-0.59 -0.21,-1.77 -0.28,-2.36 l -0.15,-0.84 c -0.03,-0.42 -0.07,-1.25 -0.1,-1.67 l -0.88,-0.23 c -1.86,-0.53 -3.73,-1.02 -5.66,-1.2 -1.73,-0.03 -5.19,-0.09 -6.92,-0.12 -0.72,-0.06 -2.16,-0.2 -2.89,-0.26 l -0.31,-0.85 -0.82,0.03 c -0.43,0.01 -1.29,0.04 -1.72,0.05 l -0.85,-0.25 c -0.57,-0.2 -1.73,-0.6 -2.31,-0.79 l -0.75,-0.27 c -0.31,-0.16 -0.91,-0.49 -1.22,-0.65 l -0.71,-0.11 c -0.31,-0.15 -0.92,-0.45 -1.22,-0.6 l -0.79,-0.07 -0.85,-0.1 c -1.59,-0.14 -4.78,-0.41 -6.37,-0.55 -0.35,0.12 -1.06,0.34 -1.41,0.46 l -0.71,0.3 -0.69,0.23 c -0.26,0.18 -0.79,0.55 -1.06,0.73 l -0.54,0.37 c -0.2,0.22 -0.61,0.67 -0.82,0.9 -0.15,0.26 -0.44,0.79 -0.59,1.06 l -0.16,0.63 -0.19,0.65 c -0.2,0.23 -0.61,0.69 -0.81,0.92 l 0.8,0.07 c 0.09,0.4 0.25,1.21 0.33,1.62 0.13,0.35 0.38,1.04 0.51,1.39 0.19,0.29 0.57,0.88 0.76,1.17 0.21,0.27 0.63,0.8 0.84,1.07 0.22,0.25 0.66,0.75 0.88,1 0.23,0.25 0.67,0.74 0.89,0.98 0.21,0.25 0.64,0.74 0.85,0.98 0.2,0.25 0.59,0.75 0.79,1 0.17,0.26 0.5,0.79 0.67,1.05 l 0.14,0.6 c 0.1,0.28 0.31,0.84 0.41,1.11 -0.01,0.31 -0.01,0.92 -0.01,1.23 -0.12,0.26 -0.35,0.78 -0.46,1.03 -0.24,0.16 -0.71,0.47 -0.95,0.62 -0.3,0.04 -0.9,0.12 -1.2,0.15 -0.31,-0.04 -0.91,-0.13 -1.21,-0.18 l -0.62,-0.17 c -0.31,-0.1 -0.93,-0.3 -1.24,-0.4 -1.34,-0.81 -2.99,-0.82 -4.29,0.08 l -0.69,0.27 c -0.31,0.15 -0.93,0.43 -1.24,0.58 -0.29,0.16 -0.87,0.49 -1.16,0.65 l -0.61,0.32 c -0.3,0.14 -0.9,0.43 -1.2,0.57 -0.32,0.11 -0.98,0.32 -1.3,0.43 l -0.73,0.12 c -0.37,-0.04 -1.11,-0.11 -1.48,-0.14 -0.29,-0.14 -0.88,-0.43 -1.18,-0.57 -0.25,-0.16 -0.74,-0.5 -0.99,-0.67 -0.22,-0.18 -0.67,-0.54 -0.9,-0.72 -0.22,-0.19 -0.66,-0.57 -0.89,-0.76 -0.25,-0.2 -0.74,-0.59 -0.99,-0.79 -0.34,-0.12 -1.02,-0.38 -1.36,-0.51 -2.64,-0.23 -5.24,-0.65 -7.81,-1.25 -0.48,-0.07 -1.45,-0.21 -1.93,-0.28 l 0.05,-0.9 c 0.12,-1.48 0.27,-2.96 0.32,-4.43 l 0.65,-0.12 c 0.27,-0.16 0.81,-0.48 1.07,-0.64 l 0.62,-0.37 c 0.32,-0.17 0.97,-0.52 1.3,-0.69 l 0.73,-0.33 c 0.53,-0.23 1.61,-0.69 2.15,-0.92 l 0.72,-0.23 c 0.23,-0.23 0.67,-0.68 0.9,-0.9 0.53,-0.2 1.59,-0.6 2.12,-0.8 l 0.68,-0.33 c 0.22,-0.25 0.67,-0.74 0.9,-0.98 0.13,-0.33 0.41,-1 0.55,-1.33 0.11,-0.65 0.33,-1.93 0.43,-2.58 0.36,-1.21 0.18,-2.35 -0.51,-3.41 l -0.28,-0.8 -0.15,-0.78 c -0.17,-0.3 -0.51,-0.91 -0.68,-1.21 l -0.18,-0.69 c -0.17,-0.29 -0.5,-0.88 -0.67,-1.17 l -0.18,-0.69 c -0.19,-0.3 -0.56,-0.91 -0.74,-1.21 -0.26,-0.52 -0.78,-1.58 -1.03,-2.1 l -0.21,-0.75 c -0.19,-0.3 -0.56,-0.9 -0.74,-1.19 l -0.17,-0.7 c -0.17,-0.3 -0.51,-0.9 -0.68,-1.2 l -0.3,-0.69 c -0.14,-0.34 -0.43,-1.02 -0.58,-1.36 l -0.28,-0.72 -0.1,-0.75 c -0.16,-0.32 -0.49,-0.94 -0.65,-1.26 l -0.26,-0.77 c -0.19,-0.57 -0.58,-1.73 -0.77,-2.3 l -0.28,-0.84 c -0.2,-0.58 -0.6,-1.76 -0.8,-2.34 l -0.27,-0.85 c -0.18,-0.61 -0.53,-1.82 -0.7,-2.43 -0.07,-0.47 -0.22,-1.41 -0.29,-1.87 0.04,-1.3 0.02,-2.59 -0.04,-3.87 0,-0.48 0,-1.45 0,-1.93 0.06,-1.29 0.08,-2.57 0.04,-3.85 0.06,-0.46 0.19,-1.4 0.26,-1.86 0.72,-1.01 0.99,-2.12 0.8,-3.34 l 0.19,-0.84 c 0.18,-0.55 0.55,-1.67 0.73,-2.23 l 0.23,-0.81 c 0.17,-0.56 0.52,-1.68 0.69,-2.25 0.09,-0.41 0.28,-1.25 0.38,-1.67 0.17,-0.56 0.52,-1.69 0.7,-2.25 l 0.23,-0.82 c 0.17,-0.57 0.52,-1.72 0.69,-2.29 0.1,-0.42 0.31,-1.27 0.41,-1.7 0.18,-0.58 0.53,-1.73 0.71,-2.31 l 0.26,-0.82 c 0.17,-0.57 0.53,-1.7 0.71,-2.26 l 0.2,-0.79 c 0.18,-0.31 0.55,-0.94 0.73,-1.25 0.02,-0.41 0.06,-1.24 0.08,-1.65 l 0.18,-0.83 c 0.1,-0.59 0.31,-1.76 0.41,-2.35 -0.02,-0.41 -0.07,-1.22 -0.09,-1.63 l 0.04,-0.77 0.05,-0.74 -0.66,-0.22 -0.43,-0.58 c -0.47,-1.26 -1.12,-1.36 -1.95,-0.27 -0.27,0.17 -0.8,0.5 -1.07,0.67 -0.25,0.19 -0.75,0.56 -1,0.75 l -0.52,0.4 c -0.25,0.21 -0.74,0.62 -0.99,0.83 -0.23,0.23 -0.69,0.7 -0.93,0.94 -0.22,0.26 -0.67,0.78 -0.9,1.04 l -0.46,0.57 c -0.23,0.27 -0.67,0.82 -0.9,1.09 -0.21,0.27 -0.65,0.81 -0.86,1.08 -0.21,0.27 -0.63,0.81 -0.84,1.08 -0.22,0.25 -0.65,0.77 -0.87,1.02 l -0.32,0.63 c -0.21,0.29 -0.62,0.87 -0.83,1.16 -0.21,0.31 -0.61,0.91 -0.82,1.22 l -0.41,0.64 c -0.2,0.3 -0.6,0.91 -0.8,1.21 -0.2,0.28 -0.62,0.83 -0.83,1.1 l -0.28,0.68 c -0.19,0.31 -0.58,0.93 -0.78,1.24 l -0.41,0.66 c -0.2,0.31 -0.6,0.92 -0.8,1.23 -0.21,0.31 -0.61,0.92 -0.81,1.22 l -0.42,0.63 c -0.21,0.29 -0.62,0.88 -0.83,1.17 -0.2,0.28 -0.62,0.83 -0.83,1.11 l -0.43,0.56 c -0.22,0.23 -0.66,0.71 -0.89,0.95 -0.23,0.2 -0.71,0.59 -0.95,0.79 l -0.53,0.29 c -0.18,0.2 -0.54,0.61 -0.72,0.81 -0.6,-0.19 -1.8,-0.56 -2.4,-0.75 0.11,-0.41 0.34,-1.23 0.46,-1.65 0.56,-1.04 0.7,-2.13 0.4,-3.26 0.1,-0.42 0.29,-1.26 0.39,-1.68 0.15,-0.57 0.46,-1.7 0.62,-2.27 l 0.17,-0.78 c 0.19,-0.31 0.55,-0.93 0.74,-1.24 0.02,-0.4 0.07,-1.22 0.09,-1.63 l 0.21,-0.82 c 0.19,-0.57 0.55,-1.71 0.74,-2.29 l 0.23,-0.83 c 0.18,-0.57 0.53,-1.72 0.71,-2.3 0.09,-0.43 0.29,-1.28 0.39,-1.7 0.18,-0.57 0.53,-1.72 0.71,-2.29 l 0.25,-0.82 c 0.19,-0.56 0.58,-1.69 0.77,-2.25 l 0.26,-0.82 c 0.19,-0.57 0.59,-1.71 0.78,-2.27 l 0.28,-0.82 c 0.2,-0.55 0.61,-1.66 0.81,-2.21 l 0.29,-0.74 c 0.14,-0.33 0.42,-1 0.56,-1.34 l 0.27,-0.68 c 0.17,-0.29 0.51,-0.87 0.68,-1.16 l 0.14,-0.74 c 0.24,-0.53 0.71,-1.59 0.95,-2.12 l 0.33,-0.75 c 0.16,-0.35 0.48,-1.04 0.64,-1.39 l 0.33,-0.71 c 0.17,-0.34 0.5,-1.02 0.67,-1.36 l 0.34,-0.7 c 0.17,-0.33 0.52,-1 0.69,-1.34 l 0.37,-0.69 c 0.18,-0.33 0.54,-0.98 0.72,-1.31 l 0.37,-0.67 c 0.19,-0.3 0.55,-0.92 0.73,-1.22 0.2,-0.27 0.6,-0.82 0.8,-1.09 l 0.27,-0.64 c 0.19,-0.29 0.57,-0.87 0.76,-1.16 0.21,-0.26 0.62,-0.8 0.82,-1.06 l 0.3,-0.65 c 0.2,-0.29 0.59,-0.86 0.79,-1.15 0.22,-0.27 0.65,-0.81 0.86,-1.07 l 0.31,-0.66 c 0.22,-0.3 0.64,-0.89 0.85,-1.19 0.21,-0.31 0.64,-0.92 0.86,-1.22 l 0.44,-0.64 c 0.22,-0.3 0.65,-0.9 0.87,-1.2 0.21,-0.29 0.62,-0.87 0.83,-1.16 0.22,-0.26 0.66,-0.78 0.88,-1.05 l 0.32,-0.64 c 0.21,-0.3 0.63,-0.88 0.84,-1.17 0.22,-0.3 0.64,-0.91 0.86,-1.21 l 0.44,-0.63 c 0.21,-0.3 0.64,-0.89 0.85,-1.19 0.2,-0.29 0.61,-0.86 0.81,-1.14 0.21,-0.27 0.63,-0.79 0.84,-1.06 l 0.3,-0.63 c 0.19,-0.29 0.57,-0.86 0.76,-1.15 0.2,-0.27 0.59,-0.81 0.79,-1.08 l 0.28,-0.67 c 0.19,-0.31 0.55,-0.95 0.73,-1.27 l 0.38,-0.68 c 0.18,-0.33 0.54,-1 0.72,-1.34 l 0.35,-0.7 c 0.17,-0.33 0.51,-1 0.68,-1.33 l 0.33,-0.7 c 0.16,-0.33 0.47,-0.99 0.63,-1.32 l 0.3,-0.68 c 0.18,-0.29 0.53,-0.88 0.7,-1.17 l 0.15,-0.75 c 0.23,-0.54 0.69,-1.62 0.92,-2.15 l 0.28,-0.82 c 0.2,-0.57 0.6,-1.72 0.81,-2.29 l 0.23,-0.84 c 0.17,-0.59 0.53,-1.75 0.7,-2.34 -0.02,-1.83 0.21,-3.65 0.56,-5.43 0.02,-1.5 0.06,-4.49 0.08,-5.98 -0.31,-2.62 -0.52,-5.24 -0.61,-7.86 l -0.02,-0.97 c 0.03,-1.75 0.11,-5.26 0.15,-7.01 l 0.08,-0.94 c 0.1,-0.46 0.29,-1.37 0.39,-1.83 0.2,-0.34 0.61,-1.03 0.81,-1.38 0.02,-0.44 0.04,-1.31 0.05,-1.75 0.22,-0.21 0.66,-0.63 0.88,-0.84 l 0.3,-0.6 c 0.19,-0.27 0.59,-0.8 0.79,-1.07 0.22,-0.25 0.67,-0.74 0.89,-0.99 0.25,-0.23 0.74,-0.7 0.98,-0.93 0.27,-0.23 0.81,-0.67 1.08,-0.9 l 0.6,-0.44 c 0.28,-0.2 0.86,-0.61 1.15,-0.82 0.3,-0.19 0.89,-0.59 1.18,-0.78 l 0.63,-0.38 c 0.3,-0.18 0.91,-0.54 1.22,-0.72 l 0.68,-0.18 c 0.29,-0.18 0.88,-0.54 1.17,-0.72 l 0.72,-0.28 c 0.37,-0.14 1.12,-0.41 1.49,-0.54 z"
     id="path3358"
     inkscape:connector-curvature="0"
     style="fill:#000000;stroke:#000000;stroke-width:0.09375" />
</svg>
