<svg width="100" height="137" viewBox="0 0 100 137" fill="none" xmlns="http://www.w3.org/2000/svg">
<path d="M4.00001 7C4.00001 5.89543 3.10457 5 2.00001 5C0.895436 5 5.24654e-06 5.89543 5.20166e-06 7L4.00001 7ZM0 135C-4.48874e-08 136.105 0.89543 137 2 137C3.10457 137 4 136.105 4 135L0 135ZM98 13H100C100 12.344 99.6783 11.7298 99.1392 11.3561C98.6 10.9825 97.9119 10.897 97.2978 11.1273L98 13ZM98 77L98.7022 78.8727C99.4829 78.5799 100 77.8337 100 77H98ZM53.0079 78.128L52.3056 80.0006L53.0079 78.128ZM5.20166e-06 7L0 135L4 135L4.00001 7L5.20166e-06 7ZM0 20V84H4V20H0ZM100 77V13H96V77H100ZM97.2978 11.1273L93.5855 12.5194L94.99 16.2647L98.7022 14.8727L97.2978 11.1273ZM94.99 80.2647L98.7022 78.8727L97.2978 75.1273L93.5855 76.5194L94.99 80.2647ZM54.4145 12.5194L53.7101 12.2553L52.3056 16.0006L53.01 16.2647L54.4145 12.5194ZM52.3056 80.0006L53.01 80.2647L54.4145 76.5194L53.7101 76.2553L52.3056 80.0006ZM93.5855 76.5194C80.9579 81.2548 67.0422 81.2548 54.4145 76.5194L53.01 80.2647C66.5432 85.3397 81.4568 85.3397 94.99 80.2647L93.5855 76.5194ZM93.5855 12.5194C80.9579 17.2548 67.0421 17.2548 54.4145 12.5194L53.01 16.2647C66.5432 21.3397 81.4568 21.3397 94.99 16.2647L93.5855 12.5194ZM3.1094 85.6641C17.6432 75.9749 35.9503 73.8674 52.3056 80.0006L53.7101 76.2553C36.1502 69.6703 16.4949 71.9331 0.8906 82.3359L3.1094 85.6641ZM3.1094 21.6641C17.6432 11.9749 35.9503 9.86736 52.3056 16.0006L53.7101 12.2553C36.1502 5.67033 16.4949 7.93306 0.8906 18.3359L3.1094 21.6641Z" fill="black" fill-opacity="0.25"/>
<path d="M98 9L94.2878 10.3921C81.2073 15.2973 66.7927 15.2973 53.7122 10.3921L52.574 9.96526C35.8888 3.7083 17.2125 5.85833 2.38551 15.743V15.743C2.14466 15.9036 2 16.1739 2 16.4633V78.4446C2 79.1095 2.74097 79.506 3.29416 79.1372V79.1372C17.5506 69.6329 35.5083 67.5656 51.5515 73.5818L53.7122 74.3921C66.7927 79.2973 81.2073 79.2973 94.2878 74.3921L98 73V9Z" fill="url(#paint0_linear_5_27)"/>
<path d="M4.00001 3C4.00001 1.89543 3.10457 1 2.00001 1C0.895436 1 5.24654e-06 1.89543 5.20166e-06 3L4.00001 3ZM0 131C-4.48874e-08 132.105 0.89543 133 2 133C3.10457 133 4 132.105 4 131L0 131ZM98 9H100C100 8.34404 99.6783 7.72978 99.1392 7.35615C98.6 6.98252 97.9119 6.89702 97.2978 7.12734L98 9ZM98 73L98.7022 74.8727C99.4829 74.5799 100 73.8337 100 73H98ZM53.0079 74.128L52.3056 76.0006L53.0079 74.128ZM5.20166e-06 3L0 131L4 131L4.00001 3L5.20166e-06 3ZM0 16V80H4V16H0ZM100 73V9H96V73H100ZM97.2978 7.12734L93.5855 8.51943L94.99 12.2647L98.7022 10.8727L97.2978 7.12734ZM94.99 76.2647L98.7022 74.8727L97.2978 71.1273L93.5855 72.5194L94.99 76.2647ZM54.4145 8.51942L53.7101 8.25529L52.3056 12.0006L53.01 12.2647L54.4145 8.51942ZM52.3056 76.0006L53.01 76.2647L54.4145 72.5194L53.7101 72.2553L52.3056 76.0006ZM93.5855 72.5194C80.9579 77.2548 67.0422 77.2548 54.4145 72.5194L53.01 76.2647C66.5432 81.3397 81.4568 81.3397 94.99 76.2647L93.5855 72.5194ZM93.5855 8.51943C80.9579 13.2548 67.0421 13.2548 54.4145 8.51942L53.01 12.2647C66.5432 17.3397 81.4568 17.3397 94.99 12.2647L93.5855 8.51943ZM3.1094 81.6641C17.6432 71.9749 35.9503 69.8674 52.3056 76.0006L53.7101 72.2553C36.1502 65.6703 16.4949 67.9331 0.8906 78.3359L3.1094 81.6641ZM3.1094 17.6641C17.6432 7.97487 35.9503 5.86736 52.3056 12.0006L53.7101 8.25529C36.1502 1.67033 16.4949 3.93306 0.8906 14.3359L3.1094 17.6641Z" fill="#003080"/>
<defs>
<linearGradient id="paint0_linear_5_27" x1="50" y1="0" x2="50" y2="82" gradientUnits="userSpaceOnUse">
<stop stop-color="#0080FF"/>
<stop offset="1" stop-color="#0060BF"/>
</linearGradient>
</defs>
</svg>
